<svg width="181" height="36" viewBox="0 0 181 36" fill="none" xmlns="http://www.w3.org/2000/svg">
<path d="M13.3564 36H12.3564V37H13.3564V36ZM13.3564 29.5303V28.5303H12.3564V29.5303H13.3564ZM21.3643 29.5303V30.5303H22.3643V29.5303H21.3643ZM21.3643 10.0723H22.3643V9.07227H21.3643V10.0723ZM13.3564 10.0723H12.3564V11.0723H13.3564V10.0723ZM13.3564 3.60254V2.60254H12.3564V3.60254H13.3564ZM25.6855 3.60254L26.3913 2.8941L26.0987 2.60254H25.6855V3.60254ZM32.1797 10.0723H33.1797V9.65695L32.8855 9.36383L32.1797 10.0723ZM32.1797 29.5303L32.8855 30.2387L33.1797 29.9456V29.5303H32.1797ZM25.6855 36V37H26.0987L26.3913 36.7084L25.6855 36ZM0.856445 3.60254V2.60254H-0.143555V3.60254H0.856445ZM11.6475 3.60254H12.6475V2.60254H11.6475V3.60254ZM11.6475 36V37H12.6475V36H11.6475ZM0.856445 36H-0.143555V37H0.856445V36ZM14.3564 36V29.5303H12.3564V36H14.3564ZM13.3564 30.5303H21.3643V28.5303H13.3564V30.5303ZM22.3643 29.5303V10.0723H20.3643V29.5303H22.3643ZM21.3643 9.07227H13.3564V11.0723H21.3643V9.07227ZM14.3564 10.0723V3.60254H12.3564V10.0723H14.3564ZM13.3564 4.60254H25.6855V2.60254H13.3564V4.60254ZM24.9798 4.31098L31.4739 10.7807L32.8855 9.36383L26.3913 2.8941L24.9798 4.31098ZM31.1797 10.0723V29.5303H33.1797V10.0723H31.1797ZM31.4739 28.8218L24.9798 35.2916L26.3913 36.7084L32.8855 30.2387L31.4739 28.8218ZM25.6855 35H13.3564V37H25.6855V35ZM0.856445 4.60254H11.6475V2.60254H0.856445V4.60254ZM10.6475 3.60254V36H12.6475V3.60254H10.6475ZM11.6475 35H0.856445V37H11.6475V35ZM1.85645 36V3.60254H-0.143555V36H1.85645ZM58.4082 36H57.4082V37H58.4082V36ZM58.4082 16.542H59.4082V15.542H58.4082V16.542ZM43.0518 16.542H42.0518V17.542H43.0518V16.542ZM43.0518 13.3193L42.3447 12.6122L42.0518 12.9051V13.3193H43.0518ZM46.2988 10.0723V9.07227H45.8846L45.5917 9.36516L46.2988 10.0723ZM62.4854 10.0723L63.1925 9.36516L62.8996 9.07227H62.4854V10.0723ZM68.9551 16.542H69.9551V16.1278L69.6622 15.8349L68.9551 16.542ZM68.9551 36V37H69.9551V36H68.9551ZM56.6992 20.9121H57.6992V19.9121H56.6992V20.9121ZM56.6992 25.4043V26.4043H57.6992V25.4043H56.6992ZM51.1328 25.4043V24.4043H50.1328V25.4043H51.1328ZM51.1328 29.9453H50.1328V30.9453H51.1328V29.9453ZM56.6992 29.9453H57.6992V28.9453H56.6992V29.9453ZM56.6992 32.8018L57.4036 33.5115L57.6992 33.2182V32.8018H56.6992ZM53.4766 36V37H53.8886L54.181 36.7098L53.4766 36ZM45.2246 36L44.5235 36.7131L44.8154 37H45.2246V36ZM40.8789 31.7275H39.8789V32.1467L40.1778 32.4406L40.8789 31.7275ZM40.8789 25.2334L40.1738 24.5243L39.8789 24.8175V25.2334H40.8789ZM45.2246 20.9121V19.9121H44.812L44.5195 20.203L45.2246 20.9121ZM59.4082 36V16.542H57.4082V36H59.4082ZM58.4082 15.542H43.0518V17.542H58.4082V15.542ZM44.0518 16.542V13.3193H42.0518V16.542H44.0518ZM43.7589 14.0264L47.0059 10.7794L45.5917 9.36516L42.3447 12.6122L43.7589 14.0264ZM46.2988 11.0723H62.4854V9.07227H46.2988V11.0723ZM61.7782 10.7794L68.248 17.2491L69.6622 15.8349L63.1925 9.36516L61.7782 10.7794ZM67.9551 16.542V36H69.9551V16.542H67.9551ZM68.9551 35H58.4082V37H68.9551V35ZM55.6992 20.9121V25.4043H57.6992V20.9121H55.6992ZM56.6992 24.4043H51.1328V26.4043H56.6992V24.4043ZM50.1328 25.4043V29.9453H52.1328V25.4043H50.1328ZM51.1328 30.9453H56.6992V28.9453H51.1328V30.9453ZM55.6992 29.9453V32.8018H57.6992V29.9453H55.6992ZM55.9948 32.092L52.7721 35.2902L54.181 36.7098L57.4036 33.5115L55.9948 32.092ZM53.4766 35H45.2246V37H53.4766V35ZM45.9257 35.2869L41.58 31.0144L40.1778 32.4406L44.5235 36.7131L45.9257 35.2869ZM41.8789 31.7275V25.2334H39.8789V31.7275H41.8789ZM41.584 25.9425L45.9297 21.6212L44.5195 20.203L40.1738 24.5243L41.584 25.9425ZM45.2246 21.9121H56.6992V19.9121H45.2246V21.9121ZM78.3379 0.18457V-0.81543H77.3379V0.18457H78.3379ZM89.1289 0.18457H90.1289V-0.81543H89.1289V0.18457ZM89.1289 36V37H90.1289V36H89.1289ZM78.3379 36H77.3379V37H78.3379V36ZM95.5986 16.542H96.5986V15.542H95.5986V16.542ZM90.8379 16.542H89.8379V17.542H90.8379V16.542ZM90.8379 13.2705L90.1281 12.5661L89.8379 12.8585V13.2705H90.8379ZM94.0117 10.0723V9.07227H93.5953L93.3019 9.36787L94.0117 10.0723ZM99.9199 10.0723L100.626 9.36383L100.333 9.07227H99.9199V10.0723ZM106.414 16.542H107.414V16.1267L107.12 15.8336L106.414 16.542ZM106.414 36V37H107.414V36H106.414ZM95.5986 36H94.5986V37H95.5986V36ZM78.3379 1.18457H89.1289V-0.81543H78.3379V1.18457ZM88.1289 0.18457V36H90.1289V0.18457H88.1289ZM89.1289 35H78.3379V37H89.1289V35ZM79.3379 36V0.18457H77.3379V36H79.3379ZM95.5986 15.542H90.8379V17.542H95.5986V15.542ZM91.8379 16.542V13.2705H89.8379V16.542H91.8379ZM91.5477 13.9749L94.7215 10.7767L93.3019 9.36787L90.1281 12.5661L91.5477 13.9749ZM94.0117 11.0723H99.9199V9.07227H94.0117V11.0723ZM99.2141 10.7807L105.708 17.2504L107.12 15.8336L100.626 9.36383L99.2141 10.7807ZM105.414 16.542V36H107.414V16.542H105.414ZM106.414 35H95.5986V37H106.414V35ZM96.5986 36V16.542H94.5986V36H96.5986ZM143.678 10.0723H144.678V9.07227H143.678V10.0723ZM143.678 36V37H144.678V36H143.678ZM132.887 36H131.887V37H132.887V36ZM132.887 10.0723V9.07227H131.887V10.0723H132.887ZM126.368 29.5303H125.368V30.5303H126.368V29.5303ZM131.178 29.5303H132.178V28.5303H131.178V29.5303ZM131.178 32.7529L131.898 33.4464L132.178 33.156V32.7529H131.178ZM128.053 36V37H128.478L128.773 36.6934L128.053 36ZM122.071 36L121.366 36.7084L121.658 37H122.071V36ZM115.577 29.5303H114.577V29.9456L114.871 30.2387L115.577 29.5303ZM115.577 10.0723V9.07227H114.577V10.0723H115.577ZM126.368 10.0723H127.368V9.07227H126.368V10.0723ZM142.678 10.0723V36H144.678V10.0723H142.678ZM143.678 35H132.887V37H143.678V35ZM133.887 36V10.0723H131.887V36H133.887ZM132.887 11.0723H143.678V9.07227H132.887V11.0723ZM126.368 30.5303H131.178V28.5303H126.368V30.5303ZM130.178 29.5303V32.7529H132.178V29.5303H130.178ZM130.457 32.0595L127.332 35.3066L128.773 36.6934L131.898 33.4464L130.457 32.0595ZM128.053 35H122.071V37H128.053V35ZM122.777 35.2916L116.283 28.8218L114.871 30.2387L121.366 36.7084L122.777 35.2916ZM116.577 29.5303V10.0723H114.577V29.5303H116.577ZM115.577 11.0723H126.368V9.07227H115.577V11.0723ZM125.368 10.0723V29.5303H127.368V10.0723H125.368ZM170.346 36H169.346V37H170.346V36ZM170.346 16.542H171.346V15.542H170.346V16.542ZM154.989 16.542H153.989V17.542H154.989V16.542ZM154.989 13.3193L154.282 12.6122L153.989 12.9051V13.3193H154.989ZM158.236 10.0723V9.07227H157.822L157.529 9.36516L158.236 10.0723ZM174.423 10.0723L175.13 9.36516L174.837 9.07227H174.423V10.0723ZM180.893 16.542H181.893V16.1278L181.6 15.8349L180.893 16.542ZM180.893 36V37H181.893V36H180.893ZM168.637 20.9121H169.637V19.9121H168.637V20.9121ZM168.637 25.4043V26.4043H169.637V25.4043H168.637ZM163.07 25.4043V24.4043H162.07V25.4043H163.07ZM163.07 29.9453H162.07V30.9453H163.07V29.9453ZM168.637 29.9453H169.637V28.9453H168.637V29.9453ZM168.637 32.8018L169.341 33.5115L169.637 33.2182V32.8018H168.637ZM165.414 36V37H165.826L166.118 36.7098L165.414 36ZM157.162 36L156.461 36.7131L156.753 37H157.162V36ZM152.816 31.7275H151.816V32.1467L152.115 32.4406L152.816 31.7275ZM152.816 25.2334L152.111 24.5243L151.816 24.8175V25.2334H152.816ZM157.162 20.9121V19.9121H156.75L156.457 20.203L157.162 20.9121ZM171.346 36V16.542H169.346V36H171.346ZM170.346 15.542H154.989V17.542H170.346V15.542ZM155.989 16.542V13.3193H153.989V16.542H155.989ZM155.696 14.0264L158.943 10.7794L157.529 9.36516L154.282 12.6122L155.696 14.0264ZM158.236 11.0723H174.423V9.07227H158.236V11.0723ZM173.716 10.7794L180.185 17.2491L181.6 15.8349L175.13 9.36516L173.716 10.7794ZM179.893 16.542V36H181.893V16.542H179.893ZM180.893 35H170.346V37H180.893V35ZM167.637 20.9121V25.4043H169.637V20.9121H167.637ZM168.637 24.4043H163.07V26.4043H168.637V24.4043ZM162.07 25.4043V29.9453H164.07V25.4043H162.07ZM163.07 30.9453H168.637V28.9453H163.07V30.9453ZM167.637 29.9453V32.8018H169.637V29.9453H167.637ZM167.932 32.092L164.71 35.2902L166.118 36.7098L169.341 33.5115L167.932 32.092ZM165.414 35H157.162V37H165.414V35ZM157.863 35.2869L153.517 31.0144L152.115 32.4406L156.461 36.7131L157.863 35.2869ZM153.816 31.7275V25.2334H151.816V31.7275H153.816ZM153.522 25.9425L157.867 21.6212L156.457 20.203L152.111 24.5243L153.522 25.9425ZM157.162 21.9121H168.637V19.9121H157.162V21.9121Z" fill="#FFC801"/>
</svg>
